<svg xmlns="http://www.w3.org/2000/svg" width="1200" height="630" viewBox="0 0 1200 630" role="img" aria-labelledby="title desc">
  <title id="title">TrueOddsIQ social preview</title>
  <desc id="desc">TrueOddsIQ live sports betting odds comparison and AI-assisted pick tracking.</desc>
  <defs>
    <linearGradient id="bg" x1="0" y1="0" x2="1" y2="1">
      <stop offset="0" stop-color="#0f172a"/>
      <stop offset="0.52" stop-color="#111827"/>
      <stop offset="1" stop-color="#1e293b"/>
    </linearGradient>
    <linearGradient id="gold" x1="0" y1="0" x2="1" y2="1">
      <stop offset="0" stop-color="#fbbf24"/>
      <stop offset="1" stop-color="#d97706"/>
    </linearGradient>
  </defs>
  <rect width="1200" height="630" fill="url(#bg)"/>
  <circle cx="1020" cy="120" r="260" fill="#f59e0b" opacity="0.08"/>
  <circle cx="180" cy="560" r="260" fill="#2563eb" opacity="0.10"/>
  <g transform="translate(90 110)">
    <rect width="128" height="128" rx="32" fill="url(#gold)"/>
    <path d="M37 83c20-9 35-26 42-51 13 27 7 56-16 77-13 11-29 18-49 21 7-19 15-34 23-47Z" fill="#0f172a"/>
    <circle cx="89" cy="44" r="10" fill="#0f172a"/>
  </g>
  <text x="250" y="185" fill="#ffffff" font-family="Inter, ui-sans-serif, system-ui, -apple-system, BlinkMacSystemFont, Segoe UI, sans-serif" font-size="76" font-weight="900" letter-spacing="-3">
    TrueOdds<tspan fill="#f59e0b">IQ</tspan>
  </text>
  <text x="95" y="315" fill="#ffffff" font-family="Inter, ui-sans-serif, system-ui, sans-serif" font-size="48" font-weight="850">
    Live odds comparison.
  </text>
  <text x="95" y="376" fill="#f59e0b" font-family="Inter, ui-sans-serif, system-ui, sans-serif" font-size="48" font-weight="850">
    AI-assisted pick tracking.
  </text>
  <text x="97" y="455" fill="#cbd5e1" font-family="Inter, ui-sans-serif, system-ui, sans-serif" font-size="28" font-weight="600">
    Compare markets, monitor results, and research every slate.
  </text>
  <g transform="translate(95 505)">
    <rect width="250" height="48" rx="24" fill="rgba(245,158,11,0.14)" stroke="#f59e0b"/>
    <text x="125" y="32" text-anchor="middle" fill="#fbbf24" font-family="Inter, ui-sans-serif, system-ui, sans-serif" font-size="20" font-weight="800">trueoddsiq.com</text>
  </g>
</svg>
